<?xml version="1.0" encoding="utf-8" ?><svg xmlns="http://www.w3.org/2000/svg" xmlns:xlink="http://www.w3.org/1999/xlink" width="1024" height="1024" viewBox="0 0 1024 1024"><path fill="#27ABE1" d="M354.016 286.209C370.476 284.464 389.828 289.985 404.006 298.249C413.275 303.652 422.47 313.441 430.154 321.002L452.419 342.829L538.309 427.934C550.059 439.483 564.086 454.141 576.152 464.913C580.207 462.17 582.063 461.537 586.565 460.147C585.945 444.864 586.648 427.308 586.402 411.811C586.317 395.458 586.377 379.095 586.521 362.745C586.901 319.696 628.595 284.35 670.696 286.599C692.491 287.896 712.894 297.736 727.477 313.984C749.836 339.365 748.665 359.98 748.637 391.333L748.666 430.773L748.745 465.814C748.766 472.647 749.011 480.659 748.583 487.335C758.346 490.371 765.233 496.278 767.775 506.582C769.386 513.142 768.275 520.075 764.693 525.803C760.868 531.972 755.505 535.156 748.634 536.836L748.627 617.8C748.662 650.332 752.491 680.209 729.715 707.081C715.106 724.542 694.077 735.377 671.379 737.139C654.944 739.209 632.599 733.006 618.778 724.195C610.385 718.843 601.946 710.241 594.732 703.239C583.666 692.393 572.67 681.476 561.743 670.49C523.739 633.248 485.963 595.775 448.416 558.072C444.759 560.167 442.1 560.975 438.067 561.829C438.448 580.553 438.115 600.562 438.105 619.409C437.425 637.447 439.8 656.571 435.853 674.254C422.09 735.922 344.586 757.37 300.009 713.858C289.532 703.68 282.006 690.855 278.231 676.745C274.02 660.525 275.359 633.849 275.358 616.031C275.469 589.754 275.383 563.477 275.101 537.202C273.208 536.486 271.056 535.771 269.271 534.838C263.055 531.569 258.453 525.893 256.537 519.136C254.714 512.478 255.64 505.367 259.108 499.398C263.075 492.564 268.211 489.824 275.474 487.907C274.768 454.278 275.824 420.306 275.283 386.638C275.095 374.968 274.773 362.903 277.376 351.49C280.414 338.342 286.577 326.12 295.341 315.859C310.605 297.761 330.58 288.27 354.016 286.209ZM289.03 487.989C296.503 491.511 301.919 495.044 305.017 503.371C307.436 509.853 307.099 517.042 304.084 523.269C300.695 530.161 295.626 533.338 289.014 536.345L289.09 617.844C289.121 648.578 284.926 680.111 309.251 703.807C322.72 716.928 338.706 722.933 357.478 722.816C375.588 722.635 392.876 715.234 405.507 702.257C427.761 679.294 423.705 657.499 424.006 628.361C424.237 606.001 423.632 583.32 424.097 560.99C416.709 556.299 411.29 551.856 409.407 542.591C408.109 536.268 409.423 529.689 413.05 524.35C416.945 518.523 423.034 514.521 429.929 513.258C443.772 510.743 456.071 520.458 458.304 534.175C459.032 538.642 458.262 542.739 457.069 547.048L561.695 650.59L595.914 684.679C617.949 706.501 632.688 723.83 666.304 723.483C667.578 723.48 668.852 723.439 670.123 723.361C690.176 721.103 706.955 713.034 719.708 697.032C726.652 688.245 731.39 677.923 733.527 666.93C735.783 655.318 734.882 629.404 734.857 616.036L734.896 536.702C727.137 532.908 721.05 529.044 718.528 520.306C714.131 505.071 721.425 493.39 735.112 488.021C734.364 459.845 735.362 430.782 734.979 402.554C734.778 387.806 736.159 366.09 732.907 352.51C729.899 339.671 723.182 328 713.591 318.95C700.684 306.592 683.348 299.945 665.487 300.507C633.581 301.716 602.22 328.346 600.605 361.402C600.037 373.035 600.38 385.212 600.395 396.91L600.478 461.466C613.639 468.85 621.445 482.283 613.36 496.733C609.975 502.692 604.293 507.002 597.643 508.657C591.02 510.3 584.012 509.087 578.327 505.314C567.708 498.394 565.344 487.992 567.852 476.271C557.902 466.081 546.044 455.105 535.689 444.889L463.415 373.393L429.722 339.97C419.659 329.998 408.733 318.467 396.953 310.786C386.07 303.832 373.44 300.103 360.525 300.029C358.486 300.009 356.301 299.983 354.278 300.211C335.587 301.564 318.21 310.325 306.007 324.548C298.584 333.217 293.371 343.554 290.813 354.676C288.756 364.026 289.109 373.239 289.041 382.714C288.786 417.761 289.537 452.954 289.03 487.989ZM590.015 473.192C583.712 473.915 579.155 479.56 579.777 485.874C580.399 492.187 585.97 496.835 592.293 496.315C596.474 495.971 600.145 493.399 601.897 489.587C603.649 485.774 603.21 481.314 600.748 477.916C598.286 474.519 594.183 472.713 590.015 473.192ZM431.496 526.143C425.167 527.372 421.011 533.471 422.183 539.811C423.355 546.15 429.418 550.361 435.767 549.245C442.197 548.115 446.472 541.959 445.285 535.539C444.098 529.119 437.905 524.899 431.496 526.143ZM742.233 500.307C737.893 500.532 734.02 503.105 732.132 507.02C730.243 510.934 730.64 515.567 733.165 519.104C735.691 522.64 739.944 524.519 744.26 524.003C750.629 523.242 755.249 517.567 754.702 511.175C754.155 504.784 748.64 499.976 742.233 500.307ZM280.656 500.296C276.297 500.529 272.413 503.121 270.526 507.057C268.639 510.993 269.05 515.645 271.597 519.189C274.144 522.733 278.423 524.605 282.755 524.071C289.14 523.284 293.754 517.579 293.188 511.17C292.622 504.761 287.081 499.953 280.656 500.296Z"/><path fill="#27ABE1" d="M643.007 608.287C643.602 588.865 642.998 566.359 642.998 546.602L642.988 423.463L642.965 378.414C642.964 360.641 639.517 337.041 662.518 331.556C669.237 329.887 676.349 331.126 682.109 334.969C686.732 337.992 692.634 345.137 693.217 350.386C694.517 362.093 694.032 376.425 694.029 388.248L694.027 462.693L694.057 599.883L694.067 644.076C694.066 659.825 697.501 679.469 682.066 688.778C678.137 691.148 675.557 691.936 671.161 692.66C670.641 692.667 670.121 692.671 669.601 692.672C663.5 692.682 657.379 691.395 652.692 687.364C640.481 676.86 628.149 663.898 616.897 652.363L570.439 605.681L380.904 415.299L381.085 582.583L381.133 637.679C381.171 648.444 382.724 670.446 378.07 679.384C374.871 685.46 369.297 689.94 362.674 691.755C356.026 693.55 348.936 692.581 343.014 689.068C325.424 678.669 330.945 660.186 330.01 642.994C329.865 640.332 330.016 637.43 330.022 634.739L330.249 560.851L330.257 425.073L330.258 380.854C330.262 372.26 330.207 363.738 330.472 355.144C330.869 342.238 339.592 333.792 351.725 331.067C362.202 330.033 369.384 333.014 376.635 340.521C383.134 347.25 389.744 353.995 396.363 360.61L451.387 415.584L643.007 608.287Z"/></svg>