<?xml version="1.0" encoding="utf-8" ?><svg xmlns="http://www.w3.org/2000/svg" xmlns:xlink="http://www.w3.org/1999/xlink" width="1024" height="1024" viewBox="0 0 1024 1024"><path fill="#033670" d="M643.167 607.781C643.508 601.7 643.124 593.45 643.104 587.137L643.105 547.087L643.055 414.109L643.03 377.229C643.004 367.677 641.878 353.359 645.783 344.729C648.434 338.919 653.379 334.473 659.437 332.451C666.058 330.248 673.289 330.808 679.492 334.006C691.671 340.191 693.919 349.719 693.864 362.13C693.811 374.118 693.925 386.18 693.924 398.176L693.729 513.664L693.767 615.669C693.819 633.234 694.049 650.966 693.761 668.528C693.774 672.487 692.329 676.297 690.378 679.691C686.26 686.85 680.056 689.979 672.493 691.917C665.478 692.608 658.223 691.708 652.569 687.317C644.852 681.322 636.881 672.659 630.064 665.619C620.017 655.23 609.86 644.947 599.596 634.773L446.586 481.711C430.827 465.661 414.964 449.712 398.998 433.867C393.671 428.57 386.202 419.892 380.86 415.54C380.454 421.964 380.871 431.294 380.907 437.998L380.945 478.406L381.003 610.085L381.007 647.03C381.029 657.813 382.459 672.062 376.606 681.472C369.364 693.117 352.044 695.128 341.118 687.45C335.497 683.443 331.719 677.349 330.629 670.533C329.828 665.343 330.428 643.08 330.445 636.27L330.529 558.279L330.556 421.438L330.483 378.891C330.431 359.051 326.225 334.33 353.034 331.18C370.999 330.23 380.012 344.368 391.641 356.035C405.351 369.607 418.979 383.261 432.523 396.998L568.038 532.734L614.438 579.28C621.869 586.812 635.424 601.544 643.167 607.781Z"/><path fill="#1B6FB8" d="M275.419 487.746C275.151 462.77 275.485 437.051 275.414 412.032C275.366 394.967 273.813 366.005 277.498 350.755C281.041 335.891 288.578 322.277 299.294 311.384C315.076 295.384 336.53 286.251 359.002 285.965C401.273 285.678 421.985 312.75 449.181 339.775L507.24 397.24L550.996 440.716C558.193 447.822 568.375 458.407 576.002 464.693C580.198 462.669 582.066 461.712 586.492 460.469L586.449 396.849C586.395 362.865 582.748 338.175 609.088 311.453C640.964 279.114 692.562 277.863 724.806 310.867C735.236 321.5 742.587 334.761 746.079 349.24C748.187 357.802 748.693 365.768 748.579 374.535C748.098 411.751 749.12 449.124 748.645 486.317C748.639 486.79 748.627 487.263 748.608 487.735C743.778 487.102 739.715 487.011 734.989 488.223C734.488 476.364 734.848 463.507 734.891 451.529L734.987 393.307C734.992 390.002 735.423 370.086 734.707 368.11C734.167 355.609 731.639 344.566 725.221 333.661C713.182 313.203 689.817 299.799 665.955 300.704C647.556 301.438 630.202 309.451 617.71 322.98C596.722 345.714 600.424 365.59 600.159 393.938C599.95 416.214 600.757 438.943 600.322 461.169C614.212 468.622 621.325 482.486 612.735 497.166C609.19 503.187 603.349 507.507 596.554 509.136C578.467 513.311 562.397 493.834 567.9 476.398C559.846 468.088 550.397 459.451 542.038 451.124L456.924 367.157L424.079 334.334C405.344 315.848 389.574 300.612 361.443 300.102C342.587 299.667 324.338 306.776 310.746 319.851C295.894 334.298 289.524 351.35 289.336 371.768L289.326 373.116C289.653 387.98 289.299 403.715 289.27 418.65L289.367 487.913C296.509 491.278 302.411 495.051 305.073 503.08C309.659 516.915 303.642 531.623 289.062 535.767C285.132 536.949 279.317 537.63 275.327 536.519C272.971 535.448 269.496 534.931 267.303 533.472C247.234 520.118 253.387 494.374 275.419 487.746Z"/><path fill="#033670" d="M288.915 488.153C288.929 477.298 288.421 374.993 289.326 373.116C289.653 387.98 289.299 403.715 289.27 418.65L289.367 487.913C296.509 491.278 302.411 495.051 305.073 503.08C309.659 516.915 303.642 531.623 289.062 535.767C285.132 536.949 279.317 537.63 275.327 536.519C272.971 535.448 269.496 534.931 267.303 533.472C247.234 520.118 253.387 494.374 275.419 487.746C280.676 486.997 283.735 487.165 288.915 488.153Z"/><path fill="#1B6FB8" d="M424.005 560.324C410.169 552.714 404.803 538.584 413.038 524.593C416.255 519.092 421.608 515.171 427.823 513.764C441.419 510.554 454.709 518.781 457.922 532.471C459.099 537.489 458.235 542.547 457.033 547.476C492.439 581.887 527.546 616.605 562.349 651.626L594.01 682.752C616.702 705.076 631.992 724.021 667.009 723.427C685.269 722.944 702.611 715.314 715.304 702.178C727.911 689.124 733.84 673.878 734.676 655.887C735.351 654.746 734.922 547.478 735.065 536.577C739.069 537.624 744.354 537.71 748.433 537.068L748.356 569.966C748.343 574.857 748.119 582.746 748.607 587.385C749.203 610.455 748.568 634.305 748.462 657.409C748.372 677.079 738.425 698.641 724.631 712.564C708.822 728.312 687.406 737.135 665.092 737.094C650.59 737.121 632.677 732.736 620.308 725.042C607.876 717.308 596.037 704.489 585.626 694.031L560.825 669.581C523.115 632.765 485.653 595.696 448.442 558.375C444.472 560.432 442.565 561.178 438.059 561.675L438.122 624.813C438.131 636.529 438.365 648.409 437.975 660.104C436.493 704.535 397.037 739.091 353.16 736.773C331.185 735.799 310.527 726.018 295.848 709.636C274.867 686.246 275.398 664.185 275.403 635.046L275.404 596.629C275.399 578.595 274.384 554.061 275.327 536.519C279.317 537.63 285.132 536.949 289.062 535.767L289.003 617.14C288.963 648.702 284.733 680.325 310.059 704.463C323.487 717.262 339.173 723.348 357.74 723.002C375.727 722.705 392.867 715.309 405.423 702.426C427.701 679.305 423.742 657.578 423.777 628.291C423.628 605.635 423.704 582.978 424.005 560.324Z"/><path fill="#033670" d="M734.707 368.11C735.423 370.086 734.992 390.002 734.987 393.307L734.891 451.529C734.848 463.507 734.488 476.364 734.989 488.223C739.715 487.011 743.778 487.102 748.608 487.735C752.927 489.074 755.558 489.917 759.249 492.702C771.632 502.045 771.054 524.154 757.851 532.5C754.74 534.466 752.363 535.246 748.909 536.373C748.833 547.817 748.822 559.263 748.875 570.708C748.879 573.414 749.024 585.245 748.607 587.385C748.119 582.746 748.343 574.857 748.356 569.966L748.433 537.068C744.354 537.71 739.069 537.624 735.065 536.577C734.922 547.478 735.351 654.746 734.676 655.887C734.104 644.594 734.571 627.685 734.565 615.935L734.558 536.676C732.251 535.564 730.397 534.623 728.206 533.146C715.171 524.356 713.6 503.341 725.42 492.959C728.295 490.434 730.929 489.442 734.491 488.154C734.386 482.283 734.429 476.327 734.464 470.452C734.669 436.354 734.261 402.202 734.707 368.11Z"/></svg>